<svg xmlns="http://www.w3.org/2000/svg" viewBox="0 0 210 29" width="210" height="29" fill="none">
  <defs>
    <clipPath id="lc-clip">
      <rect width="47.3081" height="29" fill="white"/>
    </clipPath>
  </defs>
  <g clip-path="url(#lc-clip)">
    <circle cx="23.6538" cy="14.5" r="14" fill="#ffd60a"/>
    <path d="M7.14 27.016C6.50533 27.016 5.89867 26.96 5.32 26.848C4.74133 26.7547 4.228 26.568 3.78 26.288C3.35067 26.0267 3.00533 25.6533 2.744 25.168C2.50133 24.7013 2.38 24.0947 2.38 23.348V17.356C2.38 16.9453 2.25867 16.6187 2.016 16.376C1.77333 16.1333 1.46533 15.9653 1.092 15.872C0.737333 15.76 0.373333 15.704 0 15.704V13.324C0.373333 13.324 0.737333 13.2773 1.092 13.184C1.46533 13.072 1.77333 12.8947 2.016 12.652C2.25867 12.4093 2.38 12.092 2.38 11.7V5.65199C2.38 4.90533 2.50133 4.29866 2.744 3.83199C3.00533 3.34666 3.35067 2.97333 3.78 2.71199C4.228 2.43199 4.74133 2.24533 5.32 2.15199C5.89867 2.03999 6.50533 1.98399 7.14 1.98399V3.55199C6.82267 3.55199 6.468 3.59866 6.076 3.69199C5.70267 3.78533 5.376 3.95333 5.096 4.19599C4.83467 4.43866 4.69467 4.80266 4.676 5.28799L4.424 11.42C4.38667 12.3533 4.172 13.0813 3.78 13.604C3.388 14.1267 2.66 14.388 1.596 14.388V14.64C2.30533 14.64 2.856 14.7613 3.248 15.004C3.65867 15.2467 3.948 15.592 4.116 16.04C4.30267 16.4693 4.40533 16.992 4.424 17.608L4.676 23.712C4.69467 24.1787 4.83467 24.5333 5.096 24.776C5.376 25.0373 5.70267 25.2147 6.076 25.308C6.44933 25.4013 6.804 25.448 7.14 25.448V27.016Z" fill="black"/>
    <path fill-rule="evenodd" clip-rule="evenodd" d="M28.521 15.7444C27.3823 15.4321 26.1334 15.2255 24.9901 14.9133C24.8845 15.0189 24.8845 14.8077 24.8845 15.1199C24.8845 15.3265 28.3143 19.5737 30.0821 21.6445C30.1532 21.7428 30.2473 21.8222 30.3561 21.8758C30.4649 21.9295 30.5853 21.9556 30.7065 21.9521C31.5376 21.9521 33.9206 18.738 33.9206 18.1228C33.9206 16.5708 31.6248 16.5708 31.0142 16.3596C30.1877 16.153 29.251 15.951 28.521 15.7444ZM34.6552 14.2934C34.6552 13.1547 34.242 10.9784 32.9931 10.2529L25.0773 14.1878L33.0804 15.7444C34.343 15.5377 34.6552 15.3265 34.6552 14.2934ZM30.3943 5.28028C30.058 4.97533 29.6711 4.73138 29.251 4.55941C28.9388 4.55941 28.6266 4.96806 28.521 5.17927C27.3731 7.76889 24.5723 12.8563 24.5723 13.0491C24.5723 13.3614 25.6099 12.8425 26.7532 12.2227C28.6266 11.185 30.7065 10.2529 32.4697 9.21522C32.5753 9.1142 32.5753 9.0086 32.5753 8.69637C32.5753 7.66328 31.7442 6.52458 30.3943 5.28028ZM24.0534 15.5837H23.7412V19.8308C23.7774 21.3583 23.917 22.8816 24.159 24.3902C24.2646 24.6978 25.3023 25.1157 25.7201 25.1157C26.5512 25.1157 29.0444 24.1974 29.0444 22.8199C29.0084 22.3618 28.8266 21.9273 28.5256 21.5802C27.07 19.6242 25.9268 17.3468 24.0534 15.5837ZM23.0662 24.1285L22.9652 15.6388C22.653 15.7444 22.5474 15.7444 22.4418 15.8454C20.9863 17.7095 19.4252 19.5737 17.8503 21.4379C17.5063 21.8413 17.226 22.295 17.0192 22.7832C17.0192 24.3351 21.1791 25.3774 21.9046 25.3774C22.064 25.3752 22.2212 25.3407 22.3669 25.276C22.5126 25.2114 22.6437 25.1179 22.7523 25.0012C22.8608 24.8844 22.9446 24.7469 22.9986 24.597C23.0525 24.447 23.0756 24.2876 23.0662 24.1285ZM21.7668 14.6929C21.349 14.6929 20.7292 14.5873 20.4169 14.5873L15.8254 15.0005H14.1633C13.4378 15.0005 12.8134 15.2072 12.8134 16.2448C12.8134 16.7637 13.851 21.4241 15.8254 21.4241C16.0366 21.4241 16.1422 21.4241 16.2432 21.3185C17.6987 19.6609 19.0487 17.9024 20.5042 16.4515C20.922 15.9326 21.8816 15.2072 21.8816 14.8995C21.8633 14.6929 21.8633 14.7801 21.7668 14.6929ZM21.8495 14.1741C21.9482 14.1881 22.0489 14.1787 22.1433 14.1465C22.0715 14.1659 21.9973 14.1751 21.923 14.1741H21.8495ZM15.7933 7.94796C15.471 7.78103 15.1079 7.70936 14.7464 7.74134C13.6077 8.98564 12.9833 11.1574 12.9833 12.6084C12.9833 14.0593 14.5444 13.9537 15.6877 13.9537C15.9999 13.9537 17.5564 13.8527 18.3875 13.7471H22.1296V13.4348C20.0542 11.6763 17.8686 9.70651 15.7933 7.94796ZM22.6805 12.6175C22.0607 9.61468 22.1663 6.91945 20.8164 4.0222C20.1874 4.0222 19.4619 4.0222 19.0441 4.33443C18.6308 4.53645 16.032 5.88636 16.032 6.81844C16.032 7.13066 20.8164 11.4788 22.5795 12.9298C22.8045 12.7186 22.6989 12.6175 22.6989 12.6175H22.6805ZM27.1206 3.67325C25.8865 3.43373 24.635 3.29552 23.3785 3.26001C23.0662 3.26001 22.754 3.26001 22.653 3.36102C22.527 3.40729 22.4189 3.4921 22.3438 3.60338C22.2688 3.71466 22.2308 3.84675 22.2352 3.98088L23.6999 12.4798C24.5309 11.8553 25.1554 9.99118 25.7798 8.85708C25.8808 8.54485 27.7542 5.33538 27.7542 4.50431C27.7542 4.19209 27.7542 4.19209 27.6486 4.09107C27.6033 3.9823 27.5311 3.88686 27.4387 3.81376C27.3463 3.74065 27.2368 3.69229 27.1206 3.67325ZM23.5851 2.6226e-05C20.7194 0.0109156 17.9212 0.87069 15.5439 2.47078C13.1665 4.07088 11.3166 6.33953 10.2277 8.99027C9.13881 11.641 8.85978 14.555 9.42585 17.3642C9.99191 20.1734 11.3777 22.7519 13.4082 24.7741C15.4387 26.7963 18.0229 28.1714 20.8344 28.7259C23.6459 29.2805 26.5587 28.9895 29.2049 27.8897C31.8512 26.7899 34.1122 24.9307 35.7025 22.5468C37.2928 20.1628 38.1411 17.3612 38.1402 14.4955C38.1317 10.6433 36.5936 6.95224 33.8641 4.23395C31.1346 1.51565 27.4372 -0.00728819 23.5851 2.6226e-05ZM36.5883 17.7968C36.3679 18.4901 36.1291 19.1742 35.8399 19.8584C35.6042 20.4873 35.2625 21.0712 34.8297 21.5848C34.3725 22.0672 33.8748 22.5096 33.3421 22.9071C32.8003 23.3663 32.5202 24.0458 32.0289 24.5509C31.5376 25.056 30.8764 25.2718 30.3071 25.6253C29.7931 26.0227 29.2355 26.3601 28.6449 26.6309C27.3734 27.0915 26.0707 27.4613 24.7467 27.7374C23.4014 27.9808 21.8173 27.6135 20.4628 27.4573C19.1431 27.2698 17.8793 26.8 16.7575 26.0799C15.3587 25.3116 14.1209 24.2812 13.1118 23.0449C12.295 21.8281 11.6202 20.5217 11.1007 19.1513C10.8363 18.5015 10.6617 17.8188 10.5819 17.1218C10.4855 16.3734 10.1962 15.827 10.0768 15.0832C9.71868 12.8838 10.2743 10.9508 11.1604 8.91677C11.4313 8.29232 11.6976 7.65869 12.0282 7.08016C12.3499 6.48672 12.7743 5.95504 13.2817 5.50986C13.7914 5.07366 14.3607 4.71552 14.8704 4.28851C15.38 3.8615 15.8162 3.3197 16.3259 2.87891C16.8299 2.46626 17.4197 2.17135 18.0523 2.01571C18.7227 1.83204 19.4297 1.73103 20.0817 1.529C20.7337 1.32698 21.4592 1.02394 22.1433 0.85405C23.5902 0.56927 25.0855 0.652953 26.4915 1.0974C27.9276 1.43322 29.3073 1.97611 30.5872 2.70903C31.2162 3.09012 31.8085 3.53091 32.3962 3.9717C35.2613 6.1343 36.3082 9.94068 36.8408 13.343C37.1022 14.8271 37.0158 16.3517 36.5883 17.7968Z" fill="black"/>
    <path d="M40.1401 1.98399C40.7935 1.98399 41.4001 2.03999 41.9601 2.15199C42.5388 2.24533 43.0521 2.43199 43.5001 2.71199C43.9481 2.97333 44.2935 3.34666 44.5361 3.83199C44.7975 4.29866 44.9281 4.90533 44.9281 5.65199V11.644C44.9281 12.036 45.0495 12.3627 45.2921 12.624C45.5348 12.8667 45.8335 13.044 46.1881 13.156C46.5615 13.2493 46.9348 13.296 47.3081 13.296V15.676C46.9348 15.676 46.5615 15.732 46.1881 15.844C45.8335 15.9373 45.5348 16.1053 45.2921 16.348C45.0495 16.5907 44.9281 16.908 44.9281 17.3V23.348C44.9281 24.0947 44.7975 24.7013 44.5361 25.168C44.2935 25.6533 43.9481 26.0267 43.5001 26.288C43.0521 26.568 42.5388 26.7547 41.9601 26.848C41.4001 26.96 40.7935 27.016 40.1401 27.016V25.448C40.4761 25.448 40.8308 25.4013 41.2041 25.308C41.5775 25.2147 41.9041 25.0373 42.1841 24.776C42.4641 24.5333 42.6135 24.1787 42.6321 23.712L42.8841 17.58C42.9215 16.6467 43.1361 15.9187 43.5281 15.396C43.9201 14.8733 44.6481 14.612 45.7121 14.612V14.36C45.0028 14.36 44.4428 14.2387 44.0321 13.996C43.6401 13.7533 43.3508 13.4173 43.1641 12.988C42.9961 12.54 42.9028 12.008 42.8841 11.392L42.6321 5.28799C42.6135 4.80266 42.4641 4.43866 42.1841 4.19599C41.9228 3.95333 41.6055 3.78533 41.2321 3.69199C40.8588 3.59866 40.4948 3.55199 40.1401 3.55199V1.98399Z" fill="black"/>
  </g>
  <!-- LEMONCODE wordmark -->
  <text x="57" y="21.5" font-family="'Archivo Black', 'Arial Black', Arial, sans-serif" font-weight="900" font-size="17.5" fill="#111111" letter-spacing="1.5">LEMONCODE</text>
</svg>
